# xmcd
#
# Track frame offsets:
#	150
#	18288
#	39820
#	53007
#	72436
#	88860
#	104270
#	117183
#	136831
#	154035
#
# Disc length: 2333 seconds
#
# Revision: 1
# Processed by: cddbd v1.5.2PL0 Copyright (c) Steve Scherf et al.
# Submitted via: audiograbber 1.83.01
#
DISCID=76091b0a
DTITLE=Fools Gold - Fools Gold (ST 1976)
DYEAR=1976
DGENRE=Country - Rock
TTITLE0=Coming Out Of Hiding
TTITLE1=Rain, Oh Rain
TTITLE2=Choices
TTITLE3=Rollin' Fields and Meadows
TTITLE4=Sailing To Monterey
TTITLE5=I Will Run
TTITLE6=Old Tennessee
TTITLE7=One By One
TTITLE8=The Way Love Grows
TTITLE9=Love Me Through and Through
EXTD=
EXTT0=
EXTT1=
EXTT2=
EXTT3=
EXTT4=
EXTT5=
EXTT6=
EXTT7=
EXTT8=
EXTT9=
PLAYORDER=
